# xmcd
#
# Track frame offsets:
#	150
#	21298
#	38199
#	55086
#	69451
#	82913
#	104890
#	121083
#	142480
#	162143
#	178991
#	199665
#	213421
#
# Disc length: 3105 seconds
#
# Revision: 1
# Processed by: cddbd v1.5.2PL0 Copyright (c) Steve Scherf et al.
# Submitted via: audiograbber 1.83.01
#
DISCID=bf0c1f0d
DTITLE=Lukas Nelson And Promise Of The Real - Turn Off The News (Build A Garden
DTITLE=)
DYEAR=2019
DGENRE=Country
TTITLE0=Bad Case
TTITLE1=Turn Off The News (Build A Garden)
TTITLE2=Where Does Love Go
TTITLE3=Save A Little Heartache
TTITLE4=Lotta Fun
TTITLE5=Civilized Hell
TTITLE6=Mystery
TTITLE7=Simple Life
TTITLE8=Out In LA
TTITLE9=Something Real
TTITLE10=Stars Made Of You
TTITLE11=Turn Off The News (Build A Garden) (Acoustic)
TTITLE12=Consider It Heaven
EXTD=
EXTT0=
EXTT1=
EXTT2=
EXTT3=
EXTT4=
EXTT5=
EXTT6=
EXTT7=
EXTT8=
EXTT9=
EXTT10=
EXTT11=
EXTT12=
PLAYORDER=
